<svg width="49" height="53" viewBox="0 0 49 53" fill="none" xmlns="http://www.w3.org/2000/svg">
<path d="M15.3672 48.2519L23.0507 52.667V0L15.3672 4.43747V48.2519Z" fill="#F96430"/>
<path d="M7.68353 20.9547V8.85253L0 13.29V39.3545L7.68353 43.792V31.6898C7.68353 29.9641 8.66918 28.3953 10.2148 27.6558L12.9926 26.3111L10.2148 24.9664C8.66918 24.2268 7.68353 22.658 7.68353 20.9323V20.9547Z" fill="#F96430"/>
<path d="M38.3955 20.9547V15.2846L48.812 14.8812L30.7344 4.43747V48.2519L38.4179 43.8144V31.7122C38.4179 29.9866 39.4036 28.4177 40.9492 27.6782L43.7269 26.3335L40.9492 24.9888C39.4036 24.2492 38.4179 22.6804 38.4179 20.9547H38.3955Z" fill="#F96430"/>
</svg>
