<svg width="232" height="77" viewBox="0 0 232 77" fill="none" xmlns="http://www.w3.org/2000/svg">
<path d="M27.8672 60.5852L35.5507 65.0002V12.3333L27.8672 16.7707V60.5852Z" fill="#F96430"/>
<path d="M20.1835 33.288V21.1858L12.5 25.6233V51.6878L20.1835 56.1253V44.0231C20.1835 42.2974 21.1692 40.7286 22.7148 39.989L25.4926 38.6443L22.7148 37.2996C21.1692 36.5601 20.1835 34.9913 20.1835 33.2656V33.288Z" fill="#F96430"/>
<path d="M50.8955 33.288V27.6179L61.312 27.2145L43.2344 16.7708V60.5852L50.9179 56.1477V44.0455C50.9179 42.3198 51.9036 40.751 53.4492 40.0115L56.2269 38.6668L53.4492 37.3221C51.9036 36.5825 50.9179 35.0137 50.9179 33.288H50.8955Z" fill="#F96430"/>
<path d="M95.3891 22.5912H98.1444V21.2241H89.5425V22.5912H92.5666V29.9422H82.9342V22.5912H85.9583V21.2241H77.3563V22.5912H80.134V39.1085H77.3115V40.4756H85.9807V39.1085H82.9342V31.4213H92.5666V39.1085H89.5201V40.4756H98.2116V39.1085H95.3891V22.5912Z" fill="white"/>
<path d="M110.868 26.8494C109.793 26.2667 108.538 25.9753 107.127 25.9753C105.716 25.9753 104.439 26.2667 103.364 26.8494C102.289 27.4321 101.437 28.2837 100.833 29.3819C100.228 30.4801 99.9141 31.8247 99.9141 33.3935C99.9141 34.9623 100.228 36.2846 100.833 37.3828C101.437 38.481 102.289 39.3326 103.364 39.9153C104.439 40.498 105.694 40.7893 107.127 40.7893C108.561 40.7893 109.815 40.498 110.868 39.9153C111.943 39.3326 112.772 38.481 113.399 37.3828C114.004 36.2846 114.318 34.9623 114.318 33.3935C114.318 31.8247 114.004 30.4801 113.399 29.3819C112.795 28.2837 111.943 27.4321 110.868 26.8494ZM110.823 36.6432C110.465 37.5621 109.995 38.2792 109.367 38.7499C108.74 39.2429 107.978 39.4895 107.127 39.4895C106.276 39.4895 105.514 39.2429 104.887 38.7723C104.26 38.3017 103.767 37.6069 103.431 36.688C103.073 35.7692 102.916 34.671 102.916 33.3935C102.916 32.1161 103.095 30.9955 103.431 30.0766C103.789 29.1578 104.26 28.463 104.887 27.9924C105.514 27.5217 106.254 27.2752 107.127 27.2752C108.001 27.2752 108.74 27.5217 109.367 27.9924C109.995 28.463 110.487 29.1578 110.823 30.0542C111.182 30.9507 111.339 32.0264 111.339 33.2815C111.339 34.5365 111.159 35.7243 110.823 36.6432Z" fill="white"/>
<path d="M121.083 22.2999H119.515V23.4205C119.515 24.1152 119.425 24.6755 119.223 25.1237C119.044 25.572 118.708 25.8857 118.26 26.0874C117.79 26.2891 117.185 26.3788 116.378 26.3788H115.102V27.7011H118.663L118.462 35.8813C118.395 37.4052 118.686 38.593 119.358 39.4447C120.03 40.2963 121.06 40.7221 122.427 40.7221C123.793 40.7221 124.756 40.3411 125.451 39.5567C126.123 38.7947 126.459 37.719 126.459 36.3743V33.6177H124.936V36.2623C124.936 37.0691 124.779 37.6966 124.488 38.1C124.196 38.5258 123.704 38.7275 123.054 38.7275C122.404 38.7275 121.911 38.5034 121.575 38.0776C121.239 37.6518 121.083 37.0242 121.083 36.2398V27.6562H127.31V26.2219H121.083V22.2327V22.2999Z" fill="white"/>
<path d="M139.699 26.8495C138.758 26.2892 137.571 26.0203 136.159 26.0203C134.748 26.0203 133.65 26.3116 132.598 26.8719C131.567 27.4546 130.761 28.2838 130.178 29.382C129.596 30.4801 129.305 31.8248 129.305 33.3712C129.305 34.9176 129.596 36.2399 130.178 37.3156C130.761 38.4138 131.567 39.243 132.598 39.8257C133.628 40.4084 134.815 40.6998 136.159 40.6998C137.503 40.6998 138.153 40.5205 138.96 40.1843C139.744 39.8481 140.393 39.3999 140.908 38.8396C141.424 38.2793 141.827 37.6518 142.096 36.9571C142.364 36.2623 142.521 35.5676 142.544 34.8728H141.267C141.2 35.4779 140.998 36.083 140.684 36.6881C140.371 37.2932 139.9 37.7863 139.251 38.1897C138.601 38.5931 137.817 38.7724 136.831 38.7724C135.353 38.7724 134.166 38.2793 133.314 37.2708C132.463 36.2623 132.015 34.8952 132.015 33.1247C132.015 31.3542 132.015 33.0351 132.015 32.9902H142.588V32.5644C142.588 31.2646 142.342 30.1216 141.849 29.1355C141.356 28.1494 140.64 27.3874 139.699 26.8271V26.8495ZM132.105 31.7352C132.194 31.0404 132.329 30.4129 132.53 29.8974C132.889 29.0458 133.359 28.3959 133.986 27.9701C134.614 27.5442 135.353 27.3425 136.204 27.3425C137.055 27.3425 137.683 27.5218 138.243 27.9028C138.78 28.2838 139.206 28.7993 139.475 29.4716C139.766 30.144 139.9 30.906 139.923 31.7352H132.082H132.105Z" fill="white"/>
<path d="M149.331 21.2241H144.268V22.5912H146.62V39.1085H144.066V40.4756H151.683V39.1085H149.331V21.2241Z" fill="white"/>
<path d="M152.78 21.2243V22.569H155.535V39.1087H152.713V40.4534H163.353V39.1087H158.358V31.3543H161.292C162.054 31.3543 162.592 31.5112 162.905 31.8249C163.197 32.1387 163.353 32.7214 163.353 33.5506C163.353 33.573 164.675 33.573 164.675 33.573V27.9253H163.353V27.7012C163.353 28.508 163.197 29.0907 162.905 29.4269C162.614 29.7631 162.076 29.9424 161.292 29.9424H158.358V22.6587H165.526C166.355 22.6587 166.915 22.8379 167.229 23.1741C167.542 23.5327 167.699 24.1378 167.699 24.9894V28.508H169.155V21.2019H152.78V21.2243Z" fill="white"/>
<path d="M174.689 24.2498C175.204 24.2498 175.607 24.0929 175.921 23.7791C176.234 23.4654 176.391 23.0395 176.391 22.5241C176.391 22.0086 176.234 21.6052 175.921 21.2914C175.607 20.9777 175.204 20.8208 174.689 20.8208C174.174 20.8208 173.77 20.9777 173.457 21.2914C173.143 21.6052 172.986 22.0086 172.986 22.5241C172.986 23.0395 173.143 23.4654 173.457 23.7791C173.77 24.0929 174.174 24.2498 174.689 24.2498Z" fill="white"/>
<path d="M176.19 26.2893H171.127V27.634H173.502V39.1087H170.858V40.4758H178.52V39.1087H176.19V26.2893Z" fill="white"/>
<path d="M188.824 25.9083C187.883 25.9083 187.054 26.11 186.337 26.5358C185.62 26.9616 185.06 27.6116 184.657 28.4856C184.612 28.5977 184.567 28.7097 184.523 28.8218V26.2445H179.729V27.5892H182.103V39.0638H179.46V40.4085H189.137V39.0638H184.791V31.8698C184.791 30.7716 184.948 29.8751 185.284 29.158C185.62 28.4408 186.068 27.8805 186.628 27.5219C187.211 27.1633 187.838 26.9616 188.532 26.9616C189.227 26.9616 189.742 27.0961 190.123 27.3875C190.28 27.4995 190.369 27.634 190.481 27.7909C189.966 27.7909 189.585 27.9029 189.294 28.1046C188.936 28.3511 188.779 28.7321 188.779 29.2252C188.779 29.7182 188.913 29.9424 189.204 30.1889C189.496 30.4354 189.854 30.5699 190.324 30.5699C190.795 30.5699 191.288 30.3906 191.601 30.0096C191.915 29.651 192.072 29.1804 192.072 28.6425C192.072 27.7685 191.78 27.0737 191.176 26.5806C190.571 26.0876 189.787 25.8411 188.824 25.8411V25.9083Z" fill="white"/>
<path d="M203.653 33.1022C202.914 32.766 202.085 32.4971 201.145 32.2954L199.487 31.9368C198.949 31.8023 198.434 31.6454 197.986 31.4662C197.516 31.2869 197.157 31.0403 196.911 30.7266C196.664 30.4128 196.508 29.987 196.508 29.4939C196.508 29.0009 196.754 28.2389 197.269 27.8803C197.784 27.5217 198.434 27.3424 199.24 27.3424C200.047 27.3424 200.383 27.4545 201.01 27.701C201.615 27.9476 202.175 28.3286 202.713 28.9112C203.228 29.4715 203.631 30.2559 203.922 31.2196H205.334V26.3115H203.833V29.0905C203.698 28.7768 203.564 28.4854 203.385 28.2389C202.847 27.4769 202.197 26.939 201.391 26.6029C200.585 26.2667 199.733 26.0874 198.837 26.0874C197.516 26.0874 196.418 26.4012 195.544 27.0287C194.671 27.6562 194.223 28.6199 194.223 29.8974C194.223 31.1748 194.424 31.4438 194.805 32.004C195.186 32.5643 195.746 33.035 196.463 33.3711C197.18 33.7297 198.031 33.9987 199.016 34.2228L200.719 34.6262C201.279 34.7382 201.794 34.8951 202.265 35.0968C202.735 35.2985 203.093 35.5675 203.362 35.8812C203.631 36.195 203.765 36.5984 203.765 37.0914C203.765 37.831 203.519 38.3913 203.004 38.7947C202.489 39.1981 201.772 39.3998 200.831 39.3998C199.89 39.3998 199.576 39.2654 198.949 38.9964C198.322 38.7275 197.74 38.3017 197.202 37.719C196.664 37.1363 196.216 36.3294 195.858 35.2985H194.447V40.4532H195.948V37.3828C196.104 37.7414 196.261 38.0775 196.463 38.3689C197.023 39.1533 197.717 39.736 198.546 40.117C199.375 40.498 200.293 40.6773 201.257 40.6773C202.713 40.6773 203.855 40.3187 204.751 39.6239C205.625 38.9292 206.073 37.8983 206.073 36.5536C206.073 35.2089 205.871 34.9175 205.446 34.3796C205.02 33.8418 204.437 33.3935 203.721 33.0574L203.653 33.1022Z" fill="white"/>
<path d="M219.581 27.7236V26.2893H213.353V22.3H211.785V23.4206C211.785 24.1154 211.695 24.6757 211.494 25.1239C211.315 25.5721 210.979 25.8859 210.531 26.0876C210.083 26.2893 209.455 26.3789 208.649 26.3789H207.372V27.7012H210.934L210.732 35.8814C210.665 37.4054 210.956 38.5932 211.628 39.4448C212.3 40.2965 213.331 40.7223 214.697 40.7223C216.064 40.7223 217.027 40.3413 217.721 39.5569C218.393 38.7949 218.729 37.7191 218.729 36.3745V33.6178H217.206V36.2624C217.206 37.0692 217.049 37.6967 216.758 38.1001C216.467 38.526 215.974 38.7277 215.324 38.7277C214.675 38.7277 214.182 38.5035 213.846 38.0777C213.51 37.6519 213.353 37.0244 213.353 36.24V27.6564H219.581V27.7236Z" fill="white"/>
<path d="M81.3057 49.7061L81.3457 49.7949L84.3252 56.3613L84.4219 56.5732H83.1045L83.0654 56.4834L82.3877 54.9365H79.0898L78.4121 56.4834L78.373 56.5732H77.0791L77.1748 56.3613L80.1543 49.7949L80.1943 49.7061H81.3057ZM79.5791 53.875H81.9434L80.7607 51.1709L79.5791 53.875Z" fill="white" stroke="white" stroke-width="0.3"/>
<path d="M95.7549 49.7061C96.4914 49.7061 97.1202 49.8451 97.6816 50.126L97.7646 50.167V50.1924C98.2844 50.4671 98.7067 50.8323 99 51.3516C99.3037 51.8892 99.4668 52.4754 99.4668 53.1514C99.4667 53.8257 99.3039 54.4352 98.998 54.9531L98.9961 54.957C98.669 55.4713 98.2452 55.8714 97.6816 56.1533C97.1199 56.4343 96.4686 56.5732 95.7549 56.5732H92.8496V49.7061H95.7549ZM94.0908 55.4658H95.7109C96.2252 55.4658 96.6701 55.358 97.0498 55.1689C97.4318 54.9564 97.7026 54.7071 97.9111 54.3525L98.0088 54.1855C98.1522 53.8783 98.2265 53.539 98.2266 53.1514C98.2266 52.6803 98.1192 52.2606 97.9131 51.9307C97.7016 51.5921 97.4298 51.3214 97.0547 51.1338C96.6741 50.9434 96.2271 50.836 95.7109 50.8359H94.0908V55.4658Z" fill="white" stroke="white" stroke-width="0.3"/>
<path d="M108.105 49.7061L108.146 49.7959L110.382 54.8848L112.62 49.7959L112.659 49.7061H113.928L113.835 49.917L110.945 56.4834L110.906 56.5732H109.792L109.752 56.4834L106.862 49.917L106.771 49.7061H108.105Z" fill="white" stroke="white" stroke-width="0.3"/>
<path d="M123.091 49.7061V56.5732H121.85V49.7061H123.091Z" fill="white" stroke="white" stroke-width="0.3"/>
<path d="M134.644 49.6389C134.942 49.6389 135.238 49.6786 135.529 49.7366L135.82 49.8L135.822 49.801C136.198 49.8951 136.55 50.0591 136.832 50.2473L136.936 50.3157L136.887 50.4309L136.573 51.1702L136.505 51.3303L136.356 51.2395C136.075 51.0663 135.797 50.9381 135.498 50.8528C135.195 50.766 134.985 50.7239 134.621 50.7239C134.254 50.7239 133.981 50.7658 133.757 50.8469L133.758 50.8479C133.555 50.929 133.402 51.0471 133.31 51.176C133.258 51.2484 133.228 51.302 133.21 51.3596C133.191 51.4178 133.181 51.4903 133.181 51.6047C133.181 51.8205 133.238 51.9526 133.353 52.051C133.493 52.1716 133.679 52.276 133.893 52.3616H133.892C134.129 52.4477 134.368 52.5132 134.654 52.5793C134.944 52.6462 135.214 52.7134 135.506 52.803C135.812 52.8737 136.096 52.9917 136.333 53.134H136.332C136.574 53.2569 136.791 53.4499 136.939 53.6926L137.002 53.7922C137.136 54.0322 137.19 54.3202 137.19 54.6301C137.19 54.9964 137.092 55.3146 136.899 55.6272C136.702 55.9488 136.407 56.1905 136.007 56.3792C135.599 56.5712 135.014 56.6624 134.509 56.6624C134.003 56.6623 133.493 56.5935 133.025 56.4299C132.564 56.2683 132.186 56.0579 131.898 55.7942L131.818 55.7209L131.863 55.6213L132.199 54.8821L132.284 54.6946L132.437 54.8333C132.607 54.9881 132.828 55.1229 133.083 55.2356L133.35 55.3401L133.356 55.343L133.494 55.3948C133.821 55.5062 134.189 55.5559 134.509 55.5559C134.876 55.5559 135.148 55.5129 135.372 55.4319L135.52 55.3655C135.655 55.2962 135.754 55.2174 135.82 55.1252C135.921 54.9843 135.972 54.8801 135.972 54.6975C135.972 54.5067 135.916 54.3735 135.8 54.2737L135.791 54.2659V54.2649C135.678 54.1522 135.5 54.0491 135.286 53.9631V53.9641C135.048 53.8774 134.807 53.8118 134.52 53.7454C134.37 53.7109 134.227 53.6711 134.088 53.6321C133.947 53.5928 133.811 53.5544 133.669 53.5217C133.362 53.4509 133.078 53.3322 132.841 53.1897C132.596 53.0424 132.402 52.8474 132.235 52.6096C132.055 52.3516 131.984 52.0262 131.984 51.6721C131.984 51.3077 132.082 50.9662 132.275 50.6516C132.473 50.33 132.767 50.0883 133.168 49.8997L133.172 49.8987C133.554 49.7313 134.047 49.6389 134.644 49.6389Z" fill="white" stroke="white" stroke-width="0.3"/>
<path d="M149.494 49.6389C149.894 49.6389 150.257 49.6916 150.599 49.7864L150.936 49.8948L150.938 49.8958C151.336 50.0509 151.718 50.2726 152.04 50.5803H152.062L152.105 50.6204C152.394 50.8886 152.628 51.2102 152.807 51.5676L152.88 51.7229L152.883 51.7297C153.046 52.1503 153.139 52.6168 153.139 53.1282C153.139 53.6343 153.07 54.1057 152.88 54.5344C152.692 54.9573 152.434 55.3086 152.109 55.6331L152.105 55.637C151.781 55.9383 151.406 56.1973 150.958 56.3625C150.516 56.5254 150.028 56.6184 149.517 56.6184C149.012 56.6184 148.521 56.5483 148.072 56.3596V56.3606C147.611 56.1758 147.235 55.9426 146.906 55.6145L146.785 55.4963C146.512 55.2133 146.295 54.8793 146.132 54.512C145.943 54.0877 145.85 53.6179 145.85 53.1282C145.85 52.6387 145.943 52.1695 146.132 51.7454C146.32 51.3224 146.578 50.9712 146.902 50.6467C147.229 50.32 147.605 50.0602 148.054 49.8948C148.495 49.7321 148.96 49.639 149.494 49.6389ZM149.494 50.7463C149.148 50.7464 148.834 50.7897 148.546 50.9133C148.248 51.0408 147.996 51.2096 147.786 51.4192C147.577 51.6288 147.408 51.8814 147.28 52.179C147.154 52.473 147.091 52.789 147.091 53.1282C147.091 53.4675 147.154 53.7842 147.28 54.0784C147.376 54.3013 147.495 54.4988 147.637 54.6721L147.786 54.8381L147.791 54.843L147.869 54.9241C148.057 55.1041 148.28 55.2293 148.545 55.343C148.817 55.4471 149.155 55.5109 149.494 55.511C149.84 55.511 150.155 55.4677 150.443 55.344C150.741 55.2165 150.994 55.0477 151.203 54.8381C151.413 54.6286 151.582 54.3759 151.709 54.0784C151.835 53.7842 151.898 53.4675 151.898 53.1282C151.898 52.789 151.835 52.473 151.709 52.179C151.582 51.8814 151.413 51.6288 151.203 51.4192L151.198 51.4143C150.994 51.19 150.747 51.0433 150.444 50.9133C150.147 50.8081 149.83 50.7463 149.494 50.7463Z" fill="white" stroke="white" stroke-width="0.3"/>
<path d="M164.554 49.6838C165.428 49.6838 166.138 49.8917 166.665 50.3235C167.197 50.7592 167.459 51.3647 167.459 52.1204C167.459 52.6371 167.341 53.0706 167.098 53.4358C166.875 53.7703 166.569 54.041 166.183 54.2307V54.2522L166.1 54.2942C166.099 54.2947 166.094 54.2958 166.088 54.2991L167.543 56.3362L167.713 56.5735H166.312L166.268 56.509L164.9 54.5559H163.091V56.551H161.85V49.6838H164.554ZM163.113 53.4719H164.554C165.144 53.4719 165.549 53.3618 165.822 53.1272C166.099 52.8902 166.24 52.5751 166.24 52.1428C166.24 51.7062 166.096 51.3738 165.827 51.1624C165.549 50.9435 165.138 50.8137 164.554 50.8137H163.113V53.4719Z" fill="white" stroke="white" stroke-width="0.3"/>
<path d="M177.092 49.7061L177.136 49.7783L179.113 53.0186L181.092 49.7783L181.135 49.7061H182.404L182.266 49.9346L179.689 54.1787V56.5732H178.471V54.1787L175.872 49.9346L175.732 49.7061H177.092Z" fill="white" stroke="white" stroke-width="0.3"/>
</svg>
